<svg width="800" height="500" xmlns="http://www.w3.org/2000/svg">
  <rect width="800" height="500" rx="16" fill="#F8F9FA"/>
  <rect x="0" y="0" width="800" height="48" rx="16" fill="#02001A"/>
  <rect x="0" y="32" width="800" height="16" fill="#02001A"/>
  <circle cx="24" cy="24" r="6" fill="#FF6B6B"/>
  <circle cx="44" cy="24" r="6" fill="#FFD93D"/>
  <circle cx="64" cy="24" r="6" fill="#E17120"/>
  <rect x="40" y="80" width="180" height="380" rx="8" fill="#FFFFFF" stroke="#E0E0E0" stroke-width="1"/>
  <rect x="56" y="100" width="148" height="12" rx="4" fill="#02001A"/>
  <rect x="56" y="124" width="120" height="8" rx="4" fill="#E0E0E0"/>
  <rect x="56" y="144" width="130" height="8" rx="4" fill="#E0E0E0"/>
  <rect x="56" y="164" width="100" height="8" rx="4" fill="#E0E0E0"/>
  <rect x="56" y="184" width="140" height="8" rx="4" fill="#E0E0E0"/>
  <rect x="56" y="204" width="110" height="8" rx="4" fill="#E0E0E0"/>
  <rect x="260" y="80" width="500" height="180" rx="8" fill="#FFFFFF" stroke="#E0E0E0" stroke-width="1"/>
  <rect x="280" y="100" width="200" height="16" rx="4" fill="#02001A"/>
  <rect x="280" y="130" width="460" height="8" rx="4" fill="#E0E0E0"/>
  <rect x="280" y="148" width="420" height="8" rx="4" fill="#E0E0E0"/>
  <rect x="280" y="166" width="440" height="8" rx="4" fill="#E0E0E0"/>
  <rect x="280" y="196" width="100" height="36" rx="8" fill="#02001A"/>
  <rect x="260" y="280" width="240" height="180" rx="8" fill="#FFFFFF" stroke="#E0E0E0" stroke-width="1"/>
  <rect x="280" y="300" width="120" height="12" rx="4" fill="#02001A"/>
  <rect x="280" y="324" width="200" height="60" rx="4" fill="#F0F0F5"/>
  <rect x="280" y="400" width="80" height="8" rx="4" fill="#E0E0E0"/>
  <rect x="280" y="416" width="100" height="8" rx="4" fill="#E0E0E0"/>
  <rect x="520" y="280" width="240" height="180" rx="8" fill="#FFFFFF" stroke="#E0E0E0" stroke-width="1"/>
  <rect x="540" y="300" width="120" height="12" rx="4" fill="#02001A"/>
  <rect x="540" y="324" width="200" height="60" rx="4" fill="#FFF3EB"/>
  <rect x="540" y="400" width="80" height="8" rx="4" fill="#E0E0E0"/>
  <rect x="540" y="416" width="100" height="8" rx="4" fill="#E0E0E0"/>
</svg>
